<mxfile host="app.diagrams.net" modified="2023-10-29T16:44:23.546Z" agent="Mozilla/5.0 (Windows NT 10.0; Win64; x64) AppleWebKit/537.36 (KHTML, like Gecko) Chrome/118.0.0.0 Safari/537.36" version="22.0.8" etag="UtD-XqPPyB6gr1P0cHoO" type="github">
  <diagram name="Page-1" id="H3AimytPdwN0vX2hW3we">
    <mxGraphModel>
      <root>
        <mxCell id="0" />
        <mxCell id="1" parent="0" />
      </root>
    </mxGraphModel>
  </diagram>
</mxfile>
